<svg xmlns="http://www.w3.org/2000/svg" xmlns:xlink="http://www.w3.org/1999/xlink" width="1920" zoomAndPan="magnify" viewBox="0 0 1440 487.499991" height="650" preserveAspectRatio="xMidYMid meet" version="1.0"><defs><clipPath id="2a6e325a34"><path d="M 61.242188 122 L 248 122 L 248 347 L 61.242188 347 Z M 61.242188 122 " clip-rule="nonzero"/></clipPath><clipPath id="440d9b5647"><path d="M 259 148 L 517 148 L 517 485.261719 L 259 485.261719 Z M 259 148 " clip-rule="nonzero"/></clipPath><clipPath id="078f5b8d8a"><path d="M 1150 123 L 1377.390625 123 L 1377.390625 345 L 1150 345 Z M 1150 123 " clip-rule="nonzero"/></clipPath><clipPath id="fa175de294"><path d="M 989 181 L 1097 181 L 1097 289 L 989 289 Z M 989 181 " clip-rule="nonzero"/></clipPath><clipPath id="aa99da8f6e"><path d="M 1042.15625 181.753906 C 1026.9375 181.753906 1014.328125 186.972656 1004.328125 196.972656 C 994.328125 206.976562 989.113281 219.148438 989.113281 233.5 C 989.113281 249.152344 994.328125 261.761719 1004.328125 272.199219 C 1014.328125 282.632812 1026.9375 288.285156 1042.15625 288.285156 C 1056.941406 288.285156 1069.984375 283.070312 1080.421875 272.199219 C 1090.855469 261.761719 1096.074219 248.71875 1096.074219 233.5 C 1096.074219 219.148438 1090.855469 206.976562 1080.421875 196.539062 C 1069.984375 186.972656 1057.375 181.753906 1042.15625 181.753906 Z M 1042.15625 181.753906 " clip-rule="nonzero"/></clipPath><linearGradient x1="213.39998" gradientTransform="matrix(4.348026, 0, 0, 4.348219, 61.242708, 0)" y1="54.058998" x2="237.999989" gradientUnits="userSpaceOnUse" y2="54.058998" id="d500069fbf"><stop stop-opacity="1" stop-color="rgb(0%, 42.492676%, 78.77655%)" offset="0"/><stop stop-opacity="1" stop-color="rgb(0%, 42.678833%, 78.730774%)" offset="0.0078125"/><stop stop-opacity="1" stop-color="rgb(0%, 43.051147%, 78.639221%)" offset="0.015625"/><stop stop-opacity="1" stop-color="rgb(0%, 43.423462%, 78.547668%)" offset="0.0234375"/><stop stop-opacity="1" stop-color="rgb(0%, 43.795776%, 78.457642%)" offset="0.03125"/><stop stop-opacity="1" stop-color="rgb(0%, 44.169617%, 78.366089%)" offset="0.0390625"/><stop stop-opacity="1" stop-color="rgb(0%, 44.541931%, 78.274536%)" offset="0.046875"/><stop stop-opacity="1" stop-color="rgb(0%, 44.914246%, 78.182983%)" offset="0.0546875"/><stop stop-opacity="1" stop-color="rgb(0%, 45.28656%, 78.091431%)" offset="0.0625"/><stop stop-opacity="1" stop-color="rgb(0%, 45.6604%, 78.001404%)" offset="0.0703125"/><stop stop-opacity="1" stop-color="rgb(0%, 46.032715%, 77.909851%)" offset="0.078125"/><stop stop-opacity="1" stop-color="rgb(0%, 46.405029%, 77.818298%)" offset="0.0859375"/><stop stop-opacity="1" stop-color="rgb(0%, 46.777344%, 77.726746%)" offset="0.09375"/><stop stop-opacity="1" stop-color="rgb(0%, 47.149658%, 77.636719%)" offset="0.101563"/><stop stop-opacity="1" stop-color="rgb(0%, 47.523499%, 77.545166%)" offset="0.109375"/><stop stop-opacity="1" stop-color="rgb(0%, 47.895813%, 77.453613%)" offset="0.117188"/><stop stop-opacity="1" stop-color="rgb(0%, 48.268127%, 77.362061%)" offset="0.125"/><stop stop-opacity="1" stop-color="rgb(0%, 48.640442%, 77.270508%)" offset="0.132813"/><stop stop-opacity="1" stop-color="rgb(0%, 49.014282%, 77.180481%)" offset="0.140625"/><stop stop-opacity="1" stop-color="rgb(0%, 49.386597%, 77.088928%)" offset="0.148438"/><stop stop-opacity="1" stop-color="rgb(0%, 49.758911%, 76.997375%)" offset="0.15625"/><stop stop-opacity="1" stop-color="rgb(0%, 50.131226%, 76.905823%)" offset="0.164062"/><stop stop-opacity="1" stop-color="rgb(0%, 50.505066%, 76.815796%)" offset="0.171875"/><stop stop-opacity="1" stop-color="rgb(0%, 50.87738%, 76.724243%)" offset="0.179688"/><stop stop-opacity="1" stop-color="rgb(0%, 51.249695%, 76.63269%)" offset="0.1875"/><stop stop-opacity="1" stop-color="rgb(0%, 51.622009%, 76.541138%)" offset="0.195313"/><stop stop-opacity="1" stop-color="rgb(0%, 51.994324%, 76.449585%)" offset="0.203125"/><stop stop-opacity="1" stop-color="rgb(0%, 52.368164%, 76.359558%)" offset="0.210938"/><stop stop-opacity="1" stop-color="rgb(0%, 52.740479%, 76.268005%)" offset="0.21875"/><stop stop-opacity="1" stop-color="rgb(0%, 53.112793%, 76.176453%)" offset="0.226562"/><stop stop-opacity="1" stop-color="rgb(0%, 53.485107%, 76.0849%)" offset="0.234375"/><stop stop-opacity="1" stop-color="rgb(0%, 53.858948%, 75.994873%)" offset="0.242188"/><stop stop-opacity="1" stop-color="rgb(0%, 54.231262%, 75.90332%)" offset="0.25"/><stop stop-opacity="1" stop-color="rgb(0%, 54.603577%, 75.811768%)" offset="0.257812"/><stop stop-opacity="1" stop-color="rgb(0%, 54.975891%, 75.720215%)" offset="0.265625"/><stop stop-opacity="1" stop-color="rgb(0%, 55.349731%, 75.628662%)" offset="0.273438"/><stop stop-opacity="1" stop-color="rgb(0%, 55.722046%, 75.538635%)" offset="0.28125"/><stop stop-opacity="1" stop-color="rgb(0%, 56.09436%, 75.447083%)" offset="0.289062"/><stop stop-opacity="1" stop-color="rgb(0%, 56.466675%, 75.35553%)" offset="0.296875"/><stop stop-opacity="1" stop-color="rgb(0%, 56.838989%, 75.263977%)" offset="0.304688"/><stop stop-opacity="1" stop-color="rgb(0%, 57.21283%, 75.17395%)" offset="0.3125"/><stop stop-opacity="1" stop-color="rgb(0%, 57.585144%, 75.082397%)" offset="0.320313"/><stop stop-opacity="1" stop-color="rgb(0%, 57.957458%, 74.990845%)" offset="0.328125"/><stop stop-opacity="1" stop-color="rgb(0%, 58.329773%, 74.899292%)" offset="0.335938"/><stop stop-opacity="1" stop-color="rgb(0%, 58.703613%, 74.807739%)" offset="0.34375"/><stop stop-opacity="1" stop-color="rgb(0%, 59.075928%, 74.717712%)" offset="0.351562"/><stop stop-opacity="1" stop-color="rgb(0%, 59.448242%, 74.62616%)" offset="0.359375"/><stop stop-opacity="1" stop-color="rgb(0%, 59.820557%, 74.534607%)" offset="0.367188"/><stop stop-opacity="1" stop-color="rgb(0%, 60.194397%, 74.443054%)" offset="0.375"/><stop stop-opacity="1" stop-color="rgb(0%, 60.566711%, 74.353027%)" offset="0.382812"/><stop stop-opacity="1" stop-color="rgb(0%, 60.939026%, 74.261475%)" offset="0.390625"/><stop stop-opacity="1" stop-color="rgb(0%, 61.31134%, 74.169922%)" offset="0.398438"/><stop stop-opacity="1" stop-color="rgb(0%, 61.683655%, 74.078369%)" offset="0.40625"/><stop stop-opacity="1" stop-color="rgb(0%, 62.057495%, 73.986816%)" offset="0.414062"/><stop stop-opacity="1" stop-color="rgb(0%, 62.42981%, 73.89679%)" offset="0.421875"/><stop stop-opacity="1" stop-color="rgb(0%, 62.802124%, 73.805237%)" offset="0.429688"/><stop stop-opacity="1" stop-color="rgb(0%, 63.174438%, 73.713684%)" offset="0.4375"/><stop stop-opacity="1" stop-color="rgb(0%, 63.548279%, 73.622131%)" offset="0.445312"/><stop stop-opacity="1" stop-color="rgb(0%, 63.920593%, 73.530579%)" offset="0.453125"/><stop stop-opacity="1" stop-color="rgb(0%, 64.292908%, 73.440552%)" offset="0.460937"/><stop stop-opacity="1" stop-color="rgb(0%, 64.665222%, 73.348999%)" offset="0.46875"/><stop stop-opacity="1" stop-color="rgb(0%, 65.039062%, 73.257446%)" offset="0.476562"/><stop stop-opacity="1" stop-color="rgb(0%, 65.411377%, 73.165894%)" offset="0.484375"/><stop stop-opacity="1" stop-color="rgb(0%, 65.783691%, 73.075867%)" offset="0.492188"/><stop stop-opacity="1" stop-color="rgb(0%, 66.156006%, 72.984314%)" offset="0.5"/><stop stop-opacity="1" stop-color="rgb(0%, 66.52832%, 72.892761%)" offset="0.507812"/><stop stop-opacity="1" stop-color="rgb(0%, 66.902161%, 72.801208%)" offset="0.515625"/><stop stop-opacity="1" stop-color="rgb(0%, 67.274475%, 72.709656%)" offset="0.523437"/><stop stop-opacity="1" stop-color="rgb(0%, 67.64679%, 72.619629%)" offset="0.53125"/><stop stop-opacity="1" stop-color="rgb(0%, 68.019104%, 72.528076%)" offset="0.539062"/><stop stop-opacity="1" stop-color="rgb(0%, 68.392944%, 72.436523%)" offset="0.546875"/><stop stop-opacity="1" stop-color="rgb(0%, 68.765259%, 72.344971%)" offset="0.554687"/><stop stop-opacity="1" stop-color="rgb(0%, 69.137573%, 72.254944%)" offset="0.5625"/><stop stop-opacity="1" stop-color="rgb(0%, 69.509888%, 72.163391%)" offset="0.570312"/><stop stop-opacity="1" stop-color="rgb(0%, 69.882202%, 72.071838%)" offset="0.578125"/><stop stop-opacity="1" stop-color="rgb(0%, 70.256042%, 71.980286%)" offset="0.585937"/><stop stop-opacity="1" stop-color="rgb(0%, 70.628357%, 71.888733%)" offset="0.59375"/><stop stop-opacity="1" stop-color="rgb(0%, 71.000671%, 71.798706%)" offset="0.601562"/><stop stop-opacity="1" stop-color="rgb(0%, 71.372986%, 71.707153%)" offset="0.609375"/><stop stop-opacity="1" stop-color="rgb(0%, 71.746826%, 71.615601%)" offset="0.617188"/><stop stop-opacity="1" stop-color="rgb(0%, 72.119141%, 71.524048%)" offset="0.625"/><stop stop-opacity="1" stop-color="rgb(0%, 72.491455%, 71.434021%)" offset="0.632812"/><stop stop-opacity="1" stop-color="rgb(0%, 72.86377%, 71.342468%)" offset="0.640625"/><stop stop-opacity="1" stop-color="rgb(0%, 73.23761%, 71.250916%)" offset="0.648438"/><stop stop-opacity="1" stop-color="rgb(0%, 73.609924%, 71.159363%)" offset="0.65625"/><stop stop-opacity="1" stop-color="rgb(0%, 73.982239%, 71.06781%)" offset="0.664062"/><stop stop-opacity="1" stop-color="rgb(0%, 74.354553%, 70.977783%)" offset="0.671875"/><stop stop-opacity="1" stop-color="rgb(0%, 74.726868%, 70.88623%)" offset="0.679688"/><stop stop-opacity="1" stop-color="rgb(0%, 75.100708%, 70.794678%)" offset="0.6875"/><stop stop-opacity="1" stop-color="rgb(0%, 75.473022%, 70.703125%)" offset="0.695312"/><stop stop-opacity="1" stop-color="rgb(0%, 75.845337%, 70.613098%)" offset="0.703125"/><stop stop-opacity="1" stop-color="rgb(0%, 76.217651%, 70.521545%)" offset="0.710938"/><stop stop-opacity="1" stop-color="rgb(0%, 76.591492%, 70.429993%)" offset="0.71875"/><stop stop-opacity="1" stop-color="rgb(0%, 76.963806%, 70.33844%)" offset="0.726563"/><stop stop-opacity="1" stop-color="rgb(0%, 77.336121%, 70.246887%)" offset="0.734375"/><stop stop-opacity="1" stop-color="rgb(0%, 77.708435%, 70.15686%)" offset="0.742188"/><stop stop-opacity="1" stop-color="rgb(0%, 78.082275%, 70.065308%)" offset="0.75"/><stop stop-opacity="1" stop-color="rgb(0%, 78.45459%, 69.973755%)" offset="0.757812"/><stop stop-opacity="1" stop-color="rgb(0%, 78.826904%, 69.882202%)" offset="0.765625"/><stop stop-opacity="1" stop-color="rgb(0%, 79.199219%, 69.790649%)" offset="0.773437"/><stop stop-opacity="1" stop-color="rgb(0%, 79.571533%, 69.700623%)" offset="0.78125"/><stop stop-opacity="1" stop-color="rgb(0%, 79.945374%, 69.60907%)" offset="0.789062"/><stop stop-opacity="1" stop-color="rgb(0%, 80.317688%, 69.517517%)" offset="0.796875"/><stop stop-opacity="1" stop-color="rgb(0%, 80.690002%, 69.425964%)" offset="0.804687"/><stop stop-opacity="1" stop-color="rgb(0%, 81.062317%, 69.335938%)" offset="0.8125"/><stop stop-opacity="1" stop-color="rgb(0%, 81.436157%, 69.244385%)" offset="0.820312"/><stop stop-opacity="1" stop-color="rgb(0%, 81.808472%, 69.152832%)" offset="0.828125"/><stop stop-opacity="1" stop-color="rgb(0%, 82.180786%, 69.061279%)" offset="0.835938"/><stop stop-opacity="1" stop-color="rgb(0%, 82.553101%, 68.969727%)" offset="0.84375"/><stop stop-opacity="1" stop-color="rgb(0%, 82.926941%, 68.8797%)" offset="0.851562"/><stop stop-opacity="1" stop-color="rgb(0%, 83.299255%, 68.788147%)" offset="0.859375"/><stop stop-opacity="1" stop-color="rgb(0%, 83.67157%, 68.696594%)" offset="0.867188"/><stop stop-opacity="1" stop-color="rgb(0%, 84.043884%, 68.605042%)" offset="0.875"/><stop stop-opacity="1" stop-color="rgb(0%, 84.416199%, 68.515015%)" offset="0.882812"/><stop stop-opacity="1" stop-color="rgb(0%, 84.790039%, 68.423462%)" offset="0.890625"/><stop stop-opacity="1" stop-color="rgb(0%, 85.162354%, 68.331909%)" offset="0.898438"/><stop stop-opacity="1" stop-color="rgb(0%, 85.534668%, 68.240356%)" offset="0.90625"/><stop stop-opacity="1" stop-color="rgb(0%, 85.906982%, 68.148804%)" offset="0.914062"/><stop stop-opacity="1" stop-color="rgb(0%, 86.280823%, 68.058777%)" offset="0.921875"/><stop stop-opacity="1" stop-color="rgb(0%, 86.653137%, 67.967224%)" offset="0.929688"/><stop stop-opacity="1" stop-color="rgb(0%, 87.025452%, 67.875671%)" offset="0.9375"/><stop stop-opacity="1" stop-color="rgb(0%, 87.397766%, 67.784119%)" offset="0.945313"/><stop stop-opacity="1" stop-color="rgb(0%, 87.771606%, 67.694092%)" offset="0.953125"/><stop stop-opacity="1" stop-color="rgb(0%, 88.143921%, 67.602539%)" offset="0.960938"/><stop stop-opacity="1" stop-color="rgb(0%, 88.516235%, 67.510986%)" offset="0.96875"/><stop stop-opacity="1" stop-color="rgb(0%, 88.88855%, 67.419434%)" offset="0.976563"/><stop stop-opacity="1" stop-color="rgb(0%, 89.260864%, 67.327881%)" offset="0.984375"/><stop stop-opacity="1" stop-color="rgb(0%, 89.634705%, 67.237854%)" offset="0.992188"/><stop stop-opacity="1" stop-color="rgb(0%, 90.007019%, 67.146301%)" offset="1"/></linearGradient></defs><g clip-path="url(#2a6e325a34)"><path fill="#ffffff" d="M 62.113281 310.027344 L 85.589844 274.371094 C 89.941406 268.285156 94.722656 266.546875 99.941406 269.15625 C 100.375 269.15625 102.113281 270.023438 106.027344 272.199219 C 108.203125 273.9375 111.679688 275.242188 115.59375 277.414062 C 118.203125 278.71875 121.679688 280.460938 126.464844 282.199219 C 136.027344 286.113281 144.726562 287.851562 152.550781 287.851562 C 164.726562 287.851562 171.246094 284.808594 171.246094 278.285156 C 171.246094 275.242188 169.074219 272.199219 164.289062 270.023438 C 159.941406 267.851562 149.941406 264.371094 133.855469 260.023438 C 112.550781 253.9375 96.027344 244.804688 83.417969 233.0625 C 71.242188 220.890625 64.722656 207.410156 64.285156 191.757812 C 64.285156 172.625 72.113281 156.535156 88.636719 143.054688 C 104.722656 129.140625 126.898438 122.621094 154.726562 122.621094 C 171.246094 122.621094 188.640625 125.664062 204.292969 131.75 C 212.554688 134.792969 220.378906 138.707031 227.335938 143.492188 C 232.121094 146.535156 241.6875 150.882812 236.902344 157.839844 C 233.859375 162.1875 212.121094 193.929688 212.121094 193.929688 C 209.074219 199.148438 204.292969 199.582031 199.074219 196.105469 C 182.988281 186.972656 168.640625 182.191406 156.464844 182.191406 C 143.855469 182.191406 137.332031 185.234375 137.332031 191.757812 C 137.332031 194.800781 139.507812 196.972656 143.421875 198.714844 C 147.332031 200.453125 155.59375 203.0625 166.898438 206.105469 C 189.945312 212.191406 209.511719 221.324219 224.726562 233.5 C 239.945312 246.109375 247.773438 261.328125 247.773438 279.15625 C 247.773438 298.289062 238.640625 314.375 220.816406 327.421875 C 202.988281 340.464844 179.945312 346.988281 152.117188 346.988281 C 134.289062 346.988281 117.332031 343.945312 101.246094 338.292969 C 84.289062 332.203125 72.113281 326.550781 64.722656 320.898438 C 62.980469 319.59375 61.675781 317.855469 61.242188 315.679688 C 60.808594 313.507812 61.242188 311.765625 62.113281 310.027344 Z M 62.113281 310.027344 " fill-opacity="1" fill-rule="nonzero"/></g><path fill="#ffffff" d="M 721.707031 345.683594 L 670.835938 345.683594 C 663.878906 345.683594 658.660156 343.507812 654.3125 339.160156 C 650.398438 334.8125 648.226562 329.160156 648.226562 322.203125 L 648.226562 155.230469 C 648.226562 152.621094 649.097656 150.882812 650.398438 149.144531 C 652.140625 147.40625 653.878906 146.535156 656.488281 146.535156 L 720.839844 146.535156 C 723.011719 146.535156 725.1875 147.40625 726.925781 149.144531 C 728.664062 150.882812 729.535156 153.058594 729.535156 155.230469 L 729.535156 336.988281 C 729.96875 342.640625 727.359375 345.683594 721.707031 345.683594 Z M 691.707031 123.488281 C 680.402344 123.488281 670.835938 119.574219 662.574219 111.75 C 654.3125 103.921875 650.398438 94.355469 650.398438 82.617188 C 650.398438 71.3125 654.3125 61.746094 662.574219 53.484375 C 670.835938 45.65625 680.402344 41.742188 691.707031 41.742188 C 702.578125 41.742188 712.140625 45.65625 720.402344 53.484375 C 728.230469 61.746094 732.144531 71.3125 732.144531 82.617188 C 732.144531 93.921875 728.230469 103.488281 720.402344 111.75 C 711.707031 119.574219 702.578125 123.488281 691.707031 123.488281 Z M 691.707031 123.488281 " fill-opacity="1" fill-rule="nonzero"/><path fill="#ffffff" d="M 541.699219 0 L 595.613281 0 C 613.007812 0 621.269531 8.261719 621.269531 25.21875 L 621.269531 313.941406 C 621.269531 324.378906 619.09375 331.769531 614.746094 336.550781 C 610.398438 341.335938 603.441406 343.945312 593.875 343.945312 L 549.960938 343.945312 C 543.875 343.945312 540.394531 340.464844 540.394531 333.941406 L 540.394531 46.960938 C 540.394531 40.875 538.65625 29.132812 534.742188 11.738281 C 534.308594 8.695312 534.742188 6.085938 536.046875 3.480469 C 536.480469 1.304688 538.65625 0 541.699219 0 Z M 541.699219 0 " fill-opacity="1" fill-rule="nonzero"/><g clip-path="url(#440d9b5647)"><path fill="#ffffff" d="M 442.128906 148.273438 L 509.089844 148.273438 C 512.566406 148.273438 514.742188 149.144531 516.046875 150.882812 C 517.351562 152.621094 516.914062 155.230469 515.613281 158.710938 L 433 311.765625 C 395.605469 387.425781 361.257812 443.953125 330.386719 481.347656 C 326.039062 486.566406 320.386719 486.566406 313.863281 481.347656 L 275.164062 445.691406 C 269.511719 440.910156 269.949219 434.820312 275.601562 427.863281 C 310.382812 387.425781 334.734375 347.859375 349.082031 309.160156 L 260.816406 158.710938 C 259.078125 155.667969 259.078125 153.058594 260.382812 151.316406 C 261.6875 149.578125 263.859375 148.273438 267.339844 148.273438 L 333.863281 148.273438 C 338.648438 148.273438 341.691406 150.449219 343.863281 154.796875 L 389.082031 248.285156 L 432.128906 154.796875 C 433.433594 150.449219 436.914062 148.273438 442.128906 148.273438 Z M 442.128906 148.273438 " fill-opacity="1" fill-rule="nonzero"/></g><path fill="#ffffff" d="M 901.28125 266.980469 C 891.714844 272.632812 882.148438 275.242188 872.585938 275.242188 C 860.84375 275.242188 851.277344 271.328125 843.453125 263.503906 C 835.625 255.675781 832.148438 246.109375 832.148438 234.367188 C 832.148438 223.0625 836.0625 213.496094 843.453125 205.671875 C 851.277344 197.84375 860.84375 194.367188 872.585938 194.367188 C 883.019531 194.367188 892.152344 196.972656 900.847656 202.628906 C 902.152344 203.496094 903.457031 204.367188 904.757812 204.800781 C 909.542969 182.625 919.542969 162.625 934.761719 144.359375 C 914.761719 129.578125 892.152344 122.183594 866.933594 122.183594 C 837.367188 122.183594 811.277344 133.054688 789.101562 154.363281 C 766.925781 176.101562 755.621094 202.628906 755.621094 234.367188 C 755.621094 266.109375 766.925781 293.070312 789.101562 314.375 C 811.277344 336.117188 837.367188 346.988281 866.933594 346.988281 C 892.585938 346.988281 915.195312 339.597656 935.195312 324.378906 C 919.542969 306.550781 909.542969 286.546875 904.757812 264.371094 C 903.890625 265.242188 902.585938 266.109375 901.28125 266.980469 Z M 901.28125 266.980469 " fill-opacity="1" fill-rule="nonzero"/><g clip-path="url(#078f5b8d8a)"><path fill="#ffffff" d="M 1376.957031 332.640625 C 1374.78125 321.769531 1373.476562 311.765625 1373.476562 302.636719 L 1373.476562 213.496094 C 1373.476562 186.105469 1365.214844 164.363281 1348.257812 147.839844 C 1331.300781 131.75 1309.5625 123.488281 1283.039062 123.488281 C 1265.644531 123.488281 1248.6875 129.140625 1231.730469 140.011719 C 1230.863281 137.402344 1229.121094 135.230469 1227.382812 133.054688 C 1223.46875 128.707031 1218.253906 126.53125 1211.730469 126.53125 L 1211.730469 126.097656 L 1159.121094 126.097656 C 1157.378906 126.097656 1155.640625 126.53125 1154.335938 127.835938 C 1152.597656 128.707031 1151.726562 130.445312 1151.292969 132.621094 C 1151.292969 133.492188 1150.859375 134.359375 1150.859375 135.230469 L 1150.859375 144.796875 C 1172.597656 170.449219 1183.46875 200.019531 1183.46875 234.367188 C 1183.46875 268.71875 1172.597656 298.722656 1150.859375 324.378906 L 1150.859375 335.683594 C 1150.859375 336.550781 1150.859375 337.421875 1151.292969 337.855469 C 1151.726562 340.03125 1153.03125 341.769531 1154.769531 343.074219 C 1156.074219 343.945312 1157.816406 344.8125 1159.554688 344.8125 L 1225.210938 344.8125 C 1227.816406 344.8125 1229.992188 343.945312 1231.296875 342.203125 C 1233.035156 340.464844 1233.90625 338.292969 1233.90625 335.683594 L 1233.90625 216.976562 C 1243.035156 209.585938 1253.035156 205.671875 1264.339844 205.671875 C 1272.601562 205.671875 1279.125 208.28125 1283.90625 213.496094 C 1288.691406 218.714844 1290.863281 226.105469 1290.863281 236.109375 L 1290.863281 320.898438 C 1290.863281 327.855469 1293.039062 333.074219 1297.386719 337.421875 C 1301.734375 341.769531 1307.386719 343.945312 1313.910156 343.945312 L 1372.171875 343.945312 C 1374.347656 343.945312 1375.652344 342.640625 1376.519531 340.464844 C 1377.390625 338.292969 1377.824219 335.683594 1376.957031 332.640625 Z M 1376.957031 332.640625 " fill-opacity="1" fill-rule="nonzero"/></g><g clip-path="url(#fa175de294)"><g clip-path="url(#aa99da8f6e)"><path fill="url(#d500069fbf)" d="M 989.113281 181.753906 L 989.113281 288.285156 L 1096.074219 288.285156 L 1096.074219 181.753906 Z M 989.113281 181.753906 " fill-rule="nonzero"/></g></g></svg>