<svg xmlns="http://www.w3.org/2000/svg" xmlns:xlink="http://www.w3.org/1999/xlink" width="800" zoomAndPan="magnify" viewBox="0 0 600 599.999999" height="800" preserveAspectRatio="xMidYMid meet" version="1.0"><path stroke-linecap="butt" transform="matrix(0.75, 0, 0, 0.75, 407.999983, 429.794114)" fill="none" stroke-linejoin="miter" d="M 0.0000228107 1.998474 L 254.000034 1.998474 " stroke="#000000" stroke-width="4" stroke-opacity="1" stroke-miterlimit="4"/><path stroke-linecap="round" transform="matrix(0.75, 0, 0, 0.75, 407.999983, 429.794114)" fill="none" stroke-linejoin="round" d="M 246.000033 -4.001527 L 254.000034 1.998474 L 246.000033 7.998474 " stroke="#000000" stroke-width="4" stroke-opacity="1" stroke-miterlimit="4"/><path fill="#000000" d="M 588.234375 449.734375 L 203.207031 449.734375 C 202.507812 449.734375 201.8125 449.664062 201.121094 449.527344 C 200.433594 449.390625 199.765625 449.1875 199.117188 448.917969 C 198.46875 448.648438 197.851562 448.320312 197.265625 447.929688 C 196.683594 447.539062 196.140625 447.097656 195.644531 446.601562 C 195.148438 446.101562 194.707031 445.5625 194.316406 444.980469 C 193.925781 444.394531 193.597656 443.777344 193.328125 443.128906 C 193.058594 442.480469 192.855469 441.8125 192.71875 441.125 C 192.582031 440.433594 192.511719 439.738281 192.511719 439.039062 L 192.511719 160.960938 C 192.511719 160.261719 192.582031 159.566406 192.71875 158.875 C 192.855469 158.1875 193.058594 157.519531 193.328125 156.871094 C 193.597656 156.222656 193.925781 155.605469 194.316406 155.019531 C 194.707031 154.4375 195.148438 153.898438 195.644531 153.398438 C 196.140625 152.902344 196.683594 152.460938 197.265625 152.070312 C 197.851562 151.679688 198.46875 151.351562 199.117188 151.082031 C 199.765625 150.8125 200.433594 150.609375 201.121094 150.472656 C 201.8125 150.335938 202.507812 150.265625 203.207031 150.265625 L 588.234375 150.265625 C 588.9375 150.265625 589.632812 150.335938 590.320312 150.472656 C 591.011719 150.609375 591.679688 150.8125 592.328125 151.082031 C 592.976562 151.351562 593.59375 151.679688 594.175781 152.070312 C 594.761719 152.460938 595.300781 152.902344 595.796875 153.398438 C 596.292969 153.894531 596.738281 154.4375 597.128906 155.019531 C 597.519531 155.605469 597.847656 156.222656 598.117188 156.871094 C 598.386719 157.519531 598.589844 158.1875 598.726562 158.875 C 598.863281 159.566406 598.929688 160.261719 598.929688 160.960938 L 598.929688 439.039062 C 598.929688 439.738281 598.863281 440.433594 598.726562 441.125 C 598.589844 441.8125 598.386719 442.480469 598.117188 443.128906 C 597.847656 443.777344 597.519531 444.394531 597.128906 444.980469 C 596.738281 445.5625 596.292969 446.101562 595.796875 446.601562 C 595.300781 447.097656 594.761719 447.539062 594.175781 447.929688 C 593.59375 448.320312 592.976562 448.648438 592.328125 448.917969 C 591.679688 449.1875 591.011719 449.390625 590.320312 449.527344 C 589.632812 449.664062 588.9375 449.734375 588.234375 449.734375 Z M 213.902344 428.34375 L 577.539062 428.34375 L 577.539062 171.65625 L 213.902344 171.65625 Z M 213.902344 428.34375 " fill-opacity="1" fill-rule="nonzero"/><path fill="#000000" d="M 160.429688 406.953125 L 96.257812 406.953125 C 95.554688 406.953125 94.859375 406.882812 94.171875 406.746094 C 93.480469 406.609375 92.8125 406.40625 92.164062 406.136719 C 91.515625 405.867188 90.898438 405.539062 90.316406 405.148438 C 89.730469 404.757812 89.191406 404.316406 88.695312 403.820312 C 88.199219 403.324219 87.753906 402.78125 87.363281 402.199219 C 86.972656 401.613281 86.644531 401 86.375 400.347656 C 86.105469 399.699219 85.902344 399.03125 85.765625 398.34375 C 85.628906 397.65625 85.5625 396.957031 85.5625 396.257812 C 85.5625 395.554688 85.628906 394.859375 85.765625 394.171875 C 85.902344 393.480469 86.105469 392.8125 86.375 392.164062 C 86.644531 391.515625 86.972656 390.898438 87.363281 390.316406 C 87.753906 389.730469 88.199219 389.191406 88.695312 388.695312 C 89.191406 388.199219 89.730469 387.753906 90.316406 387.363281 C 90.898438 386.972656 91.515625 386.644531 92.164062 386.375 C 92.8125 386.105469 93.480469 385.902344 94.171875 385.765625 C 94.859375 385.628906 95.554688 385.5625 96.257812 385.5625 L 160.429688 385.5625 C 161.128906 385.5625 161.824219 385.628906 162.515625 385.765625 C 163.203125 385.902344 163.871094 386.105469 164.519531 386.375 C 165.167969 386.644531 165.785156 386.972656 166.371094 387.363281 C 166.953125 387.753906 167.492188 388.199219 167.992188 388.695312 C 168.488281 389.191406 168.929688 389.730469 169.320312 390.316406 C 169.710938 390.898438 170.039062 391.515625 170.308594 392.164062 C 170.578125 392.8125 170.78125 393.480469 170.917969 394.171875 C 171.054688 394.859375 171.121094 395.554688 171.121094 396.257812 C 171.121094 396.957031 171.054688 397.65625 170.917969 398.34375 C 170.78125 399.03125 170.578125 399.699219 170.308594 400.347656 C 170.039062 401 169.710938 401.613281 169.320312 402.199219 C 168.929688 402.78125 168.488281 403.324219 167.992188 403.820312 C 167.492188 404.316406 166.953125 404.757812 166.371094 405.148438 C 165.785156 405.539062 165.167969 405.867188 164.519531 406.136719 C 163.871094 406.40625 163.203125 406.609375 162.515625 406.746094 C 161.824219 406.882812 161.128906 406.953125 160.429688 406.953125 Z M 160.429688 406.953125 " fill-opacity="1" fill-rule="nonzero"/><path fill="#000000" d="M 160.429688 342.78125 L 53.476562 342.78125 C 52.773438 342.78125 52.078125 342.710938 51.390625 342.574219 C 50.699219 342.4375 50.03125 342.234375 49.382812 341.964844 C 48.734375 341.699219 48.117188 341.367188 47.535156 340.976562 C 46.949219 340.589844 46.410156 340.144531 45.914062 339.648438 C 45.417969 339.152344 44.972656 338.613281 44.582031 338.027344 C 44.191406 337.445312 43.863281 336.828125 43.59375 336.179688 C 43.324219 335.53125 43.125 334.859375 42.984375 334.171875 C 42.847656 333.484375 42.78125 332.789062 42.78125 332.085938 C 42.78125 331.382812 42.847656 330.6875 42.984375 330 C 43.125 329.308594 43.324219 328.640625 43.59375 327.992188 C 43.863281 327.34375 44.191406 326.726562 44.582031 326.144531 C 44.972656 325.558594 45.417969 325.019531 45.914062 324.523438 C 46.410156 324.027344 46.949219 323.582031 47.535156 323.191406 C 48.117188 322.800781 48.734375 322.472656 49.382812 322.203125 C 50.03125 321.9375 50.699219 321.734375 51.390625 321.597656 C 52.078125 321.457031 52.773438 321.390625 53.476562 321.390625 L 160.429688 321.390625 C 161.128906 321.390625 161.824219 321.457031 162.515625 321.597656 C 163.203125 321.734375 163.871094 321.9375 164.519531 322.203125 C 165.167969 322.472656 165.785156 322.800781 166.371094 323.191406 C 166.953125 323.582031 167.492188 324.027344 167.992188 324.523438 C 168.488281 325.019531 168.929688 325.558594 169.320312 326.144531 C 169.710938 326.726562 170.039062 327.34375 170.308594 327.992188 C 170.578125 328.640625 170.78125 329.308594 170.917969 330 C 171.054688 330.6875 171.121094 331.382812 171.121094 332.085938 C 171.121094 332.789062 171.054688 333.484375 170.917969 334.171875 C 170.78125 334.859375 170.578125 335.53125 170.308594 336.179688 C 170.039062 336.828125 169.710938 337.445312 169.320312 338.027344 C 168.929688 338.609375 168.488281 339.152344 167.992188 339.648438 C 167.492188 340.144531 166.953125 340.589844 166.371094 340.976562 C 165.785156 341.367188 165.167969 341.699219 164.519531 341.964844 C 163.871094 342.234375 163.203125 342.4375 162.515625 342.574219 C 161.824219 342.710938 161.128906 342.78125 160.429688 342.78125 Z M 160.429688 342.78125 " fill-opacity="1" fill-rule="nonzero"/><path fill="#000000" d="M 160.429688 214.4375 L 74.867188 214.4375 C 74.164062 214.4375 73.46875 214.371094 72.78125 214.234375 C 72.089844 214.097656 71.421875 213.894531 70.773438 213.625 C 70.125 213.355469 69.507812 213.027344 68.925781 212.636719 C 68.339844 212.246094 67.800781 211.800781 67.304688 211.304688 C 66.808594 210.808594 66.363281 210.269531 65.972656 209.683594 C 65.582031 209.101562 65.253906 208.484375 64.984375 207.835938 C 64.714844 207.1875 64.511719 206.519531 64.375 205.828125 C 64.238281 205.140625 64.171875 204.445312 64.171875 203.742188 C 64.171875 203.042969 64.238281 202.34375 64.375 201.65625 C 64.511719 200.96875 64.714844 200.300781 64.984375 199.652344 C 65.253906 199 65.582031 198.386719 65.972656 197.800781 C 66.363281 197.21875 66.808594 196.675781 67.304688 196.179688 C 67.800781 195.683594 68.339844 195.242188 68.925781 194.851562 C 69.507812 194.460938 70.125 194.132812 70.773438 193.863281 C 71.421875 193.59375 72.089844 193.390625 72.78125 193.253906 C 73.46875 193.117188 74.164062 193.046875 74.867188 193.046875 L 160.429688 193.046875 C 161.128906 193.046875 161.824219 193.117188 162.515625 193.253906 C 163.203125 193.390625 163.871094 193.59375 164.519531 193.863281 C 165.167969 194.132812 165.785156 194.460938 166.371094 194.851562 C 166.953125 195.242188 167.492188 195.683594 167.992188 196.179688 C 168.488281 196.675781 168.929688 197.21875 169.320312 197.800781 C 169.710938 198.386719 170.039062 199 170.308594 199.652344 C 170.578125 200.300781 170.78125 200.96875 170.917969 201.65625 C 171.054688 202.34375 171.121094 203.042969 171.121094 203.742188 C 171.121094 204.445312 171.054688 205.140625 170.917969 205.828125 C 170.78125 206.519531 170.578125 207.1875 170.308594 207.835938 C 170.039062 208.484375 169.710938 209.101562 169.320312 209.683594 C 168.929688 210.269531 168.488281 210.808594 167.992188 211.304688 C 167.492188 211.800781 166.953125 212.246094 166.371094 212.636719 C 165.785156 213.027344 165.167969 213.355469 164.519531 213.625 C 163.871094 213.894531 163.203125 214.097656 162.515625 214.234375 C 161.824219 214.371094 161.128906 214.4375 160.429688 214.4375 Z M 160.429688 214.4375 " fill-opacity="1" fill-rule="nonzero"/><path fill="#000000" d="M 160.429688 278.609375 L 10.695312 278.609375 C 9.992188 278.609375 9.296875 278.542969 8.609375 278.402344 C 7.917969 278.265625 7.25 278.0625 6.601562 277.796875 C 5.953125 277.527344 5.335938 277.199219 4.753906 276.808594 C 4.167969 276.417969 3.628906 275.972656 3.132812 275.476562 C 2.636719 274.980469 2.191406 274.441406 1.800781 273.855469 C 1.414062 273.273438 1.082031 272.65625 0.8125 272.007812 C 0.546875 271.359375 0.34375 270.691406 0.207031 270 C 0.0703125 269.3125 0 268.617188 0 267.914062 C 0 267.210938 0.0703125 266.515625 0.207031 265.828125 C 0.34375 265.140625 0.546875 264.46875 0.8125 263.820312 C 1.082031 263.171875 1.414062 262.554688 1.800781 261.972656 C 2.191406 261.386719 2.636719 260.847656 3.132812 260.351562 C 3.628906 259.855469 4.167969 259.410156 4.753906 259.023438 C 5.335938 258.632812 5.953125 258.300781 6.601562 258.035156 C 7.25 257.765625 7.917969 257.5625 8.609375 257.425781 C 9.296875 257.289062 9.992188 257.21875 10.695312 257.21875 L 160.429688 257.21875 C 161.128906 257.21875 161.824219 257.289062 162.515625 257.425781 C 163.203125 257.5625 163.871094 257.765625 164.519531 258.035156 C 165.167969 258.300781 165.785156 258.632812 166.371094 259.023438 C 166.953125 259.410156 167.492188 259.855469 167.992188 260.351562 C 168.488281 260.847656 168.929688 261.386719 169.320312 261.972656 C 169.710938 262.554688 170.039062 263.171875 170.308594 263.820312 C 170.578125 264.46875 170.78125 265.140625 170.917969 265.828125 C 171.054688 266.515625 171.121094 267.210938 171.121094 267.914062 C 171.121094 268.617188 171.054688 269.3125 170.917969 270 C 170.78125 270.691406 170.578125 271.359375 170.308594 272.007812 C 170.039062 272.65625 169.710938 273.273438 169.320312 273.855469 C 168.929688 274.441406 168.488281 274.980469 167.992188 275.476562 C 167.492188 275.972656 166.953125 276.417969 166.371094 276.808594 C 165.785156 277.199219 165.167969 277.527344 164.519531 277.796875 C 163.871094 278.0625 163.203125 278.265625 162.515625 278.402344 C 161.824219 278.542969 161.128906 278.609375 160.429688 278.609375 Z M 160.429688 278.609375 " fill-opacity="1" fill-rule="nonzero"/><path fill="#000000" d="M 395.722656 342.78125 C 393.5625 342.78125 391.585938 342.183594 389.789062 340.984375 L 197.277344 212.640625 C 196.683594 212.253906 196.136719 211.816406 195.632812 211.320312 C 195.128906 210.824219 194.679688 210.285156 194.28125 209.699219 C 193.882812 209.117188 193.546875 208.5 193.273438 207.847656 C 193 207.199219 192.789062 206.527344 192.648438 205.835938 C 192.507812 205.140625 192.433594 204.441406 192.433594 203.738281 C 192.429688 203.03125 192.496094 202.332031 192.628906 201.636719 C 192.765625 200.945312 192.96875 200.269531 193.238281 199.617188 C 193.503906 198.964844 193.835938 198.34375 194.226562 197.757812 C 194.621094 197.167969 195.066406 196.625 195.566406 196.125 C 196.066406 195.625 196.609375 195.179688 197.195312 194.789062 C 197.785156 194.398438 198.40625 194.066406 199.058594 193.796875 C 199.710938 193.527344 200.382812 193.328125 201.078125 193.191406 C 201.769531 193.054688 202.472656 192.992188 203.175781 192.992188 C 203.882812 192.996094 204.582031 193.070312 205.273438 193.210938 C 205.96875 193.351562 206.636719 193.5625 207.289062 193.835938 C 207.941406 194.113281 208.558594 194.449219 209.140625 194.84375 L 395.722656 319.234375 L 582.300781 194.847656 C 582.886719 194.464844 583.503906 194.144531 584.148438 193.882812 C 584.796875 193.621094 585.464844 193.425781 586.148438 193.296875 C 586.835938 193.164062 587.527344 193.101562 588.226562 193.105469 C 588.925781 193.109375 589.613281 193.183594 590.300781 193.324219 C 590.984375 193.460938 591.648438 193.667969 592.289062 193.9375 C 592.933594 194.207031 593.546875 194.539062 594.125 194.925781 C 594.703125 195.316406 595.242188 195.757812 595.734375 196.253906 C 596.226562 196.75 596.664062 197.285156 597.054688 197.867188 C 597.441406 198.449219 597.765625 199.0625 598.035156 199.707031 C 598.300781 200.351562 598.503906 201.015625 598.640625 201.699219 C 598.777344 202.386719 598.847656 203.078125 598.847656 203.773438 C 598.851562 204.472656 598.785156 205.164062 598.652344 205.851562 C 598.515625 206.535156 598.316406 207.199219 598.054688 207.847656 C 597.789062 208.492188 597.464844 209.109375 597.082031 209.691406 C 596.695312 210.273438 596.257812 210.8125 595.769531 211.308594 C 595.277344 211.808594 594.746094 212.253906 594.167969 212.644531 L 401.65625 340.988281 C 399.859375 342.183594 397.878906 342.78125 395.722656 342.78125 Z M 395.722656 342.78125 " fill-opacity="1" fill-rule="nonzero"/><path fill="#000000" d="M 203.207031 449.734375 C 202.152344 449.734375 201.117188 449.578125 200.105469 449.273438 C 199.09375 448.964844 198.148438 448.515625 197.269531 447.929688 C 196.386719 447.34375 195.613281 446.640625 194.941406 445.820312 C 194.273438 445.003906 193.734375 444.105469 193.328125 443.128906 C 192.925781 442.152344 192.671875 441.136719 192.566406 440.085938 C 192.464844 439.035156 192.515625 437.988281 192.722656 436.953125 C 192.925781 435.914062 193.28125 434.929688 193.777344 433.996094 C 194.277344 433.0625 194.898438 432.222656 195.648438 431.476562 L 336.824219 290.300781 C 337.316406 289.789062 337.855469 289.332031 338.441406 288.929688 C 339.023438 288.523438 339.644531 288.183594 340.296875 287.902344 C 340.949219 287.621094 341.621094 287.410156 342.316406 287.261719 C 343.011719 287.117188 343.714844 287.042969 344.421875 287.035156 C 345.132812 287.027344 345.835938 287.09375 346.535156 287.226562 C 347.230469 287.359375 347.910156 287.5625 348.566406 287.832031 C 349.222656 288.101562 349.847656 288.429688 350.4375 288.824219 C 351.03125 289.21875 351.578125 289.664062 352.078125 290.167969 C 352.582031 290.667969 353.027344 291.214844 353.421875 291.808594 C 353.816406 292.398438 354.144531 293.023438 354.414062 293.679688 C 354.683594 294.335938 354.886719 295.015625 355.019531 295.710938 C 355.152344 296.410156 355.21875 297.113281 355.210938 297.824219 C 355.203125 298.53125 355.128906 299.234375 354.984375 299.929688 C 354.835938 300.625 354.625 301.296875 354.34375 301.949219 C 354.0625 302.601562 353.722656 303.222656 353.316406 303.804688 C 352.914062 304.390625 352.457031 304.929688 351.945312 305.421875 L 210.769531 446.597656 C 209.769531 447.605469 208.613281 448.378906 207.300781 448.921875 C 205.992188 449.464844 204.628906 449.734375 203.207031 449.734375 Z M 203.207031 449.734375 " fill-opacity="1" fill-rule="nonzero"/><path fill="#000000" d="M 588.234375 449.734375 C 586.816406 449.734375 585.453125 449.464844 584.140625 448.921875 C 582.832031 448.378906 581.675781 447.605469 580.671875 446.597656 L 439.496094 305.421875 C 438.988281 304.929688 438.53125 304.390625 438.125 303.804688 C 437.722656 303.222656 437.378906 302.601562 437.101562 301.949219 C 436.820312 301.296875 436.605469 300.625 436.460938 299.929688 C 436.316406 299.234375 436.238281 298.53125 436.234375 297.824219 C 436.226562 297.113281 436.289062 296.410156 436.425781 295.710938 C 436.558594 295.015625 436.761719 294.335938 437.027344 293.679688 C 437.296875 293.023438 437.628906 292.398438 438.023438 291.808594 C 438.414062 291.214844 438.863281 290.667969 439.363281 290.167969 C 439.867188 289.664062 440.414062 289.21875 441.003906 288.824219 C 441.597656 288.429688 442.21875 288.101562 442.878906 287.832031 C 443.535156 287.5625 444.210938 287.359375 444.910156 287.226562 C 445.605469 287.09375 446.308594 287.027344 447.019531 287.035156 C 447.730469 287.042969 448.433594 287.117188 449.128906 287.261719 C 449.824219 287.410156 450.496094 287.621094 451.148438 287.902344 C 451.800781 288.183594 452.417969 288.523438 453.003906 288.929688 C 453.589844 289.332031 454.128906 289.789062 454.621094 290.300781 L 595.796875 431.476562 C 596.542969 432.222656 597.167969 433.0625 597.664062 433.996094 C 598.164062 434.929688 598.515625 435.914062 598.722656 436.953125 C 598.929688 437.988281 598.980469 439.035156 598.875 440.085938 C 598.773438 441.136719 598.519531 442.152344 598.113281 443.128906 C 597.710938 444.105469 597.171875 445.003906 596.5 445.820312 C 595.832031 446.640625 595.054688 447.34375 594.175781 447.929688 C 593.296875 448.515625 592.351562 448.964844 591.339844 449.273438 C 590.328125 449.578125 589.292969 449.734375 588.234375 449.734375 Z M 588.234375 449.734375 " fill-opacity="1" fill-rule="nonzero"/></svg>