<svg xmlns="http://www.w3.org/2000/svg" xmlns:xlink="http://www.w3.org/1999/xlink" width="800" zoomAndPan="magnify" viewBox="0 0 600 599.999999" height="800" preserveAspectRatio="xMidYMid meet" version="1.0"><path fill="#000000" d="M 456.28125 197.140625 Z M 539.496094 74.378906 C 538.566406 74.378906 537.585938 74.503906 536.65625 74.75 C 533.875 75.507812 531.582031 77.277344 530.164062 79.730469 L 460.863281 199.777344 C 459.445312 202.25 459.0625 205.128906 459.773438 207.914062 C 460.535156 210.6875 462.28125 213.003906 464.792969 214.433594 L 494.476562 231.566406 C 496.929688 233 499.824219 233.371094 502.605469 232.625 C 505.390625 231.886719 507.683594 230.117188 509.101562 227.644531 L 578.398438 107.613281 C 581.402344 102.480469 579.601562 95.910156 574.527344 92.949219 L 544.789062 75.808594 C 543.203125 74.863281 541.351562 74.378906 539.496094 74.378906 Z M 499.769531 243.550781 C 496.167969 243.550781 492.511719 242.628906 489.183594 240.695312 L 459.5 223.558594 C 454.589844 220.730469 451.097656 216.136719 449.625 210.632812 C 448.148438 205.140625 448.914062 199.40625 451.75 194.511719 L 521.050781 74.464844 C 523.832031 69.566406 528.417969 66.050781 533.929688 64.585938 C 539.441406 63.105469 545.167969 63.859375 550.078125 66.6875 L 579.761719 83.820312 C 589.914062 89.695312 593.40625 102.714844 587.566406 112.878906 L 518.269531 232.917969 C 514.285156 239.738281 507.136719 243.550781 499.769531 243.550781 Z M 499.769531 243.550781 " fill-opacity="1" fill-rule="nonzero"/><path fill="#000000" d="M 574.472656 92.109375 C 573.542969 92.109375 572.617188 91.878906 571.796875 91.410156 C 569.289062 89.957031 568.414062 86.734375 569.886719 84.207031 L 587.949219 52.949219 C 588.332031 52.234375 588.113281 51.285156 587.347656 50.894531 L 574.796875 43.621094 C 574.363281 43.359375 573.871094 43.414062 573.652344 43.484375 C 573.433594 43.539062 572.996094 43.710938 572.726562 44.183594 L 554.664062 75.425781 C 553.246094 77.949219 550.023438 78.816406 547.460938 77.359375 C 544.949219 75.90625 544.132812 72.683594 545.550781 70.15625 L 563.613281 38.898438 C 565.195312 36.128906 567.8125 34.136719 570.925781 33.300781 C 574.035156 32.460938 577.308594 32.890625 580.09375 34.496094 L 592.640625 41.753906 C 595.425781 43.359375 597.445312 45.96875 598.261719 49.082031 C 599.078125 52.191406 598.644531 55.433594 597.0625 58.214844 L 579 89.472656 C 578.015625 91.164062 576.273438 92.109375 574.472656 92.109375 Z M 574.472656 92.109375 " fill-opacity="1" fill-rule="nonzero"/><path fill="#000000" d="M 368.484375 471.25 C 367.554688 471.25 366.683594 471.015625 365.863281 470.535156 L 322.15625 445.304688 C 319.644531 443.851562 318.773438 440.628906 320.191406 438.113281 C 321.664062 435.589844 324.882812 434.722656 327.394531 436.183594 L 371.101562 461.414062 C 373.613281 462.871094 374.484375 466.089844 373.011719 468.605469 C 372.085938 470.308594 370.28125 471.25 368.484375 471.25 Z M 368.484375 471.25 " fill-opacity="1" fill-rule="nonzero"/><path fill="#000000" d="M 533.382812 251.921875 C 532.453125 251.921875 531.582031 251.703125 530.707031 251.21875 C 528.199219 249.765625 527.378906 246.542969 528.800781 244.015625 L 581.402344 152.921875 L 564.105469 142.929688 C 561.59375 141.480469 560.71875 138.253906 562.191406 135.742188 C 563.613281 133.21875 566.886719 132.355469 569.398438 133.808594 L 591.222656 146.433594 C 592.421875 147.132812 593.351562 148.285156 593.679688 149.632812 C 594.0625 150.972656 593.84375 152.414062 593.1875 153.621094 L 537.910156 249.285156 C 536.984375 250.972656 535.183594 251.921875 533.382812 251.921875 Z M 533.382812 251.921875 " fill-opacity="1" fill-rule="nonzero"/><path fill="#000000" d="M 306.988281 527.273438 C 306.113281 527.273438 305.1875 527.039062 304.367188 526.558594 C 302.347656 525.40625 301.367188 523.117188 301.855469 520.878906 L 319.644531 439.625 C 319.753906 439.089844 319.917969 438.582031 320.191406 438.113281 L 451.699219 210.394531 C 453.113281 207.875 456.335938 207.007812 458.898438 208.476562 C 461.410156 209.933594 462.226562 213.140625 460.808594 215.667969 L 329.742188 442.667969 L 315.664062 506.953125 L 364.335938 462.632812 L 495.351562 235.632812 C 496.824219 233.109375 500.042969 232.238281 502.550781 233.695312 C 505.117188 235.152344 505.988281 238.378906 504.515625 240.898438 L 373.011719 468.605469 C 372.738281 469.085938 372.410156 469.511719 372.03125 469.863281 L 310.535156 525.886719 C 309.550781 526.792969 308.296875 527.273438 306.988281 527.273438 Z M 306.988281 527.273438 " fill-opacity="1" fill-rule="nonzero"/><path fill="#000000" d="M 433.90625 600.683594 L 7.308594 600.683594 C 4.363281 600.683594 2.015625 598.324219 2.015625 595.410156 L 2.015625 5.269531 C 2.015625 2.363281 4.363281 0 7.308594 0 L 433.90625 0 C 436.800781 0 439.144531 2.363281 439.144531 5.269531 L 439.144531 251.742188 C 439.144531 254.648438 436.800781 257.011719 433.90625 257.011719 C 430.960938 257.011719 428.613281 254.648438 428.613281 251.742188 L 428.613281 10.535156 L 12.546875 10.535156 L 12.546875 590.144531 L 428.613281 590.144531 L 428.613281 352.554688 C 428.613281 349.640625 430.960938 347.28125 433.90625 347.28125 C 436.800781 347.28125 439.144531 349.640625 439.144531 352.554688 L 439.144531 595.410156 C 439.144531 598.324219 436.800781 600.683594 433.90625 600.683594 Z M 433.90625 600.683594 " fill-opacity="1" fill-rule="nonzero"/><path fill="#000000" d="M 358.332031 85.195312 L 82.828125 85.195312 C 79.9375 85.195312 77.535156 82.835938 77.535156 79.921875 C 77.535156 77.015625 79.9375 74.65625 82.828125 74.65625 L 358.332031 74.65625 C 361.28125 74.65625 363.625 77.015625 363.625 79.921875 C 363.625 82.835938 361.28125 85.195312 358.332031 85.195312 Z M 358.332031 85.195312 " fill-opacity="1" fill-rule="nonzero"/><path fill="#000000" d="M 358.332031 135.691406 L 82.828125 135.691406 C 79.9375 135.691406 77.535156 133.328125 77.535156 130.417969 C 77.535156 127.492188 79.9375 125.148438 82.828125 125.148438 L 358.332031 125.148438 C 361.28125 125.148438 363.625 127.492188 363.625 130.417969 C 363.625 133.328125 361.28125 135.691406 358.332031 135.691406 Z M 358.332031 135.691406 " fill-opacity="1" fill-rule="nonzero"/><path fill="#000000" d="M 358.332031 186.167969 L 82.828125 186.167969 C 79.9375 186.167969 77.535156 183.804688 77.535156 180.898438 C 77.535156 177.988281 79.9375 175.625 82.828125 175.625 L 358.332031 175.625 C 361.28125 175.625 363.625 177.988281 363.625 180.898438 C 363.625 183.804688 361.28125 186.167969 358.332031 186.167969 Z M 358.332031 186.167969 " fill-opacity="1" fill-rule="nonzero"/><path fill="#000000" d="M 358.332031 236.648438 L 82.828125 236.648438 C 79.9375 236.648438 77.535156 234.285156 77.535156 231.375 C 77.535156 228.46875 79.9375 226.113281 82.828125 226.113281 L 358.332031 226.113281 C 361.28125 226.113281 363.625 228.46875 363.625 231.375 C 363.625 234.285156 361.28125 236.648438 358.332031 236.648438 Z M 358.332031 236.648438 " fill-opacity="1" fill-rule="nonzero"/><path fill="#000000" d="M 358.332031 287.136719 L 82.828125 287.136719 C 79.9375 287.136719 77.535156 284.78125 77.535156 281.871094 C 77.535156 278.949219 79.9375 276.601562 82.828125 276.601562 L 358.332031 276.601562 C 361.28125 276.601562 363.625 278.949219 363.625 281.871094 C 363.625 284.78125 361.28125 287.136719 358.332031 287.136719 Z M 358.332031 287.136719 " fill-opacity="1" fill-rule="nonzero"/><path fill="#000000" d="M 245.488281 337.625 L 82.828125 337.625 C 79.9375 337.625 77.535156 335.261719 77.535156 332.351562 C 77.535156 329.445312 79.9375 327.082031 82.828125 327.082031 L 245.488281 327.082031 C 248.382812 327.082031 250.726562 329.445312 250.726562 332.351562 C 250.726562 335.261719 248.382812 337.625 245.488281 337.625 Z M 245.488281 337.625 " fill-opacity="1" fill-rule="nonzero"/><path fill="#000000" d="M 118.1875 471.414062 C 116.824219 475.3125 115.511719 479.234375 114.3125 483.128906 C 105.855469 510.34375 105.363281 524.539062 106.5625 528.507812 C 107.765625 527.917969 110.273438 526.257812 114.476562 521.648438 C 128.554688 506.320312 134.066406 493.820312 130.847656 484.492188 C 128.992188 479.085938 124.246094 474.804688 118.1875 471.414062 Z M 105.691406 539.375 C 104.21875 539.375 102.800781 539.03125 101.324219 538.222656 C 98.324219 536.507812 89.101562 531.304688 102.910156 484.351562 C 104.328125 479.632812 106.238281 473.695312 108.582031 467.066406 C 96.960938 462.742188 83.757812 460.480469 76.007812 459.164062 C 71.640625 458.421875 68.75 457.925781 66.949219 457.324219 C 64.167969 456.402344 62.691406 453.414062 63.621094 450.652344 C 64.546875 447.894531 67.496094 446.402344 70.277344 447.324219 C 71.3125 447.664062 74.425781 448.210938 77.808594 448.773438 C 86.539062 450.269531 99.960938 452.550781 112.238281 457.171875 C 125.117188 423.898438 146.726562 381.253906 168.496094 382.515625 C 181.15625 383.273438 189.722656 397.667969 194.691406 426.542969 C 202.273438 471.015625 203.527344 501.480469 198.507812 519.230469 L 207.019531 520.851562 L 218.589844 511.167969 C 219.789062 510.179688 221.371094 509.753906 222.898438 510.015625 L 237.796875 512.632812 L 249.363281 502.921875 C 250.5625 501.933594 252.148438 501.507812 253.675781 501.765625 L 268.570312 504.390625 L 280.195312 494.671875 C 282.375 492.804688 285.707031 493.09375 287.617188 495.332031 C 289.472656 497.570312 289.144531 500.886719 286.960938 502.75 L 273.484375 514.03125 C 272.28125 515.035156 270.699219 515.460938 269.171875 515.1875 L 254.273438 512.578125 L 242.652344 522.28125 C 241.507812 523.28125 239.921875 523.707031 238.398438 523.433594 L 223.5 520.824219 L 211.878906 530.527344 C 210.675781 531.542969 209.09375 531.96875 207.511719 531.667969 L 190.488281 528.441406 C 188.90625 528.136719 187.484375 527.125 186.777344 525.679688 C 186.011719 524.242188 186.011719 522.539062 186.667969 521.058594 C 191.140625 511.320312 194.359375 487.320312 184.265625 428.328125 C 179.191406 398.421875 171.664062 393.753906 168.660156 393.148438 C 163.039062 391.996094 154.253906 399.792969 145.035156 413.996094 C 137.121094 426.179688 128.828125 443.273438 121.84375 461.441406 C 130.628906 466.089844 137.832031 472.390625 140.832031 481.074219 C 145.359375 494.328125 139.140625 510.386719 122.28125 528.769531 C 119.386719 531.929688 112.566406 539.375 105.691406 539.375 Z M 105.691406 539.375 " fill-opacity="1" fill-rule="nonzero"/><path stroke-linecap="butt" transform="matrix(0.75, 0, 0, 0.75, 107.999996, 376.147065)" fill="none" stroke-linejoin="miter" d="M 0.000005744 2.00183 L 254.000017 2.00183 " stroke="#000000" stroke-width="4" stroke-opacity="1" stroke-miterlimit="4"/><path stroke-linecap="round" transform="matrix(0.75, 0, 0, 0.75, 107.999996, 376.147065)" fill="none" stroke-linejoin="round" d="M 246.000016 -3.99817 L 254.000017 2.00183 L 246.000016 8.001831 " stroke="#000000" stroke-width="4" stroke-opacity="1" stroke-miterlimit="4"/></svg>